<svg width="64" height="37" viewBox="0 0 64 37" fill="none" xmlns="http://www.w3.org/2000/svg">
<rect width="64" height="37" rx="18.5" fill="#2397F3"/>
<path d="M28.7063 21.425L30.1063 20.025C30.2948 19.8388 30.5334 19.7113 30.793 19.6581C31.0526 19.6048 31.3221 19.6281 31.5688 19.725L33.275 20.4063C33.5243 20.5074 33.738 20.6801 33.8893 20.9026C34.0405 21.125 34.1226 21.3873 34.125 21.6563V24.7813C34.1236 24.9643 34.0851 25.1451 34.0119 25.3128C33.9388 25.4805 33.8324 25.6317 33.6993 25.7573C33.5662 25.8828 33.409 25.9801 33.2373 26.0433C33.0655 26.1065 32.8828 26.1343 32.7 26.125C20.7438 25.3813 18.3313 15.2563 17.875 11.3813C17.8538 11.191 17.8732 10.9984 17.9318 10.8161C17.9904 10.6338 18.0869 10.466 18.2151 10.3237C18.3432 10.1815 18.5 10.0679 18.6751 9.99057C18.8503 9.91323 19.0398 9.87385 19.2313 9.87503H22.25C22.5194 9.87582 22.7824 9.95719 23.0051 10.1087C23.2279 10.2601 23.4003 10.4748 23.5 10.725L24.1813 12.4313C24.2814 12.6769 24.307 12.9467 24.2547 13.2068C24.2025 13.4669 24.0748 13.7058 23.8875 13.8938L22.4875 15.2938C22.4875 15.2938 23.2938 20.75 28.7063 21.425Z" fill="white"/>
<path d="M44.504 15V13.8352H46.8336V22H45.5456V15H44.504Z" fill="white"/>
</svg>
