<svg width="36" height="36" viewBox="0 0 36 36" fill="none" xmlns="http://www.w3.org/2000/svg">
<path fill-rule="evenodd" clip-rule="evenodd" d="M18 0C27.9393 0 36 8.06071 36 18C36 27.9393 27.9393 36 18 36C8.06141 36 -1.52588e-05 27.9393 -1.52588e-05 18C-1.52588e-05 8.06143 8.06141 0 18 0ZM5.8057 26.1821C8.16227 24.4846 10.2368 22.3526 13.3243 21.2181C14.7218 21.9534 16.3114 22.3691 18.0001 22.3691C19.6672 22.3691 21.2411 21.9642 22.6253 21.246C25.9367 22.4734 28.2953 24.7892 30.1953 26.1807C24.6976 34.3557 11.4246 34.5386 5.80606 26.1821L5.8057 26.1821ZM18 5.43C21.7961 5.43 24.875 8.50893 24.875 12.3056C24.875 16.1021 21.7961 19.1806 18 19.1806C14.2034 19.1806 11.1244 16.1021 11.1244 12.3056C11.1244 8.509 14.2033 5.43 18 5.43Z" fill="#49C496"/>
</svg>
